Coordinates
nRows=157
nColumns=2
inDegrees=yes
endheader
time	ankle_angle_r	
4.18723	  0.229112	
4.24973	  0.206846	
4.31222	  0.192656	
4.37472	  0.168165	
4.43722	  0.158076	
4.49971	  0.150389	
4.56221	  0.158370	
4.6247	  0.196446	
4.6872	  0.204728	
4.7497	  0.207709	
4.81219	  0.205793	
4.87469	  0.145554	
4.93718	  0.085383	
4.99968	  0.062554	
5.06218	  0.100240	
5.12467	  0.179376	
5.18717	  0.181137	
5.24966	  0.132719	
5.31216	  0.104220	
5.37466	  0.081648	
5.43715	  0.071492	
5.49965	  0.065942	
5.56214	  0.103246	
5.62464	  0.175682	
5.68714	  0.203255	
5.74963	  0.211636	
5.81213	  0.200209	
5.87462	  0.161596	
5.93712	  0.143367	
5.99962	  0.127791	
6.06211	  0.151567	
6.12461	  0.217931	
6.1871	  0.237779	
6.2496	  0.222144	
6.3121	  0.172821	
6.37459	  0.100858	
6.43709	  0.076513	
6.49958	  0.084512	
6.56208	  0.107199	
6.62458	  0.135596	
6.68707	  0.142916	
6.74957	  0.138859	
6.81206	  0.121755	
6.87456	  0.092935	
6.93706	  0.072470	
6.99955	  0.095318	
7.06205	  0.149375	
7.12454	  0.180412	
7.18704	  0.203383	
7.24954	  0.195748	
7.31203	  0.157661	
7.37453	  0.161911	
7.43702	  0.160213	
7.49952	  0.159530	
7.56202	  0.211004	
7.62451	  0.230605	
7.68701	  0.216456	
7.7495	  0.190700	
7.812	  0.138770	
7.8745	  0.119369	
7.93699	  0.120388	
7.99949	  0.131326	
8.06198	  0.161574	
8.12448	  0.159084	
8.18698	  0.157583	
8.24947	  0.148433	
8.31197	  0.094659	
8.37446	  0.070645	
8.43696	  0.076222	
8.49946	  0.103703	
8.56195	  0.165648	
8.62445	  0.200705	
8.68694	  0.203537	
8.74944	  0.187141	
8.81194	  0.160154	
8.87443	  0.160749	
8.93693	  0.183914	
8.99942	  0.206945	
9.06192	  0.222690	
9.12442	  0.234460	
9.18691	  0.214733	
9.24941	  0.157162	
9.3119	  0.127630	
9.3744	  0.122084	
9.4369	  0.118589	
9.49939	  0.132237	
9.56189	  0.135660	
9.62438	  0.135847	
9.68688	  0.120025	
9.74938	  0.074750	
9.81187	  0.057651	
9.87437	  0.060789	
9.93686	  0.088165	
9.99936	  0.138059	
10.0619	  0.141910	
10.1244	  0.124982	
10.1868	  0.100974	
10.2493	  0.066525	
10.3118	  0.051293	
10.3743	  0.036185	
10.4368	  0.067636	
10.4993	  0.123978	
10.5618	  0.120294	
10.6243	  0.130330	
10.6868	  0.160012	
10.7493	  0.139426	
10.8118	  0.107697	
10.8743	  0.112137	
10.9368	  0.150548	
10.9993	  0.177541	
11.0618	  0.187491	
11.1243	  0.197296	
11.1868	  0.179038	
11.2493	  0.153568	
11.3118	  0.142325	
11.3743	  0.160555	
11.4368	  0.201990	
11.4993	  0.202850	
11.5618	  0.194405	
11.6243	  0.171977	
11.6868	  0.098858	
11.7492	  0.055968	
11.8117	  0.054139	
11.8742	  0.088751	
11.9367	  0.144060	
11.9992	  0.141810	
12.0617	  0.119771	
12.1242	  0.098878	
12.1867	  0.059486	
12.2492	  0.045791	
12.3117	  0.053028	
12.3742	  0.076564	
12.4367	  0.109867	
12.4992	  0.128545	
12.5617	  0.139551	
12.6242	  0.101910	
12.6867	  0.040488	
12.7492	  0.038773	
12.8117	  0.068822	
12.8742	  0.098750	
12.9367	  0.133547	
12.9992	  0.164210	
13.0617	  0.170705	
13.1242	  0.151882	
13.1867	  0.148280	
13.2492	  0.146493	
13.3116	  0.153032	
13.3741	  0.200180	
13.4366	  0.221535	
13.4991	  0.209463	
13.5616	  0.184692	
13.6241	  0.142762	
13.6866	  0.134338	
13.7491	  0.130396	
13.8116	  0.137365	
13.8741	  0.181386	
13.9366	  0.168198	
